<svg width="172" height="172" viewBox="0 0 172 172" fill="none" xmlns="http://www.w3.org/2000/svg">
<g filter="url(#filter0_d_1_23)">
<rect x="4" width="164" height="164" rx="82" fill="black" fill-opacity="0.6" shape-rendering="crispEdges"/>
<path fill-rule="evenodd" clip-rule="evenodd" d="M86 49C67.7746 49 53 63.7746 53 82C53 100.225 67.7746 115 86 115L86 98C94.8366 98 102 90.8366 102 82C102 73.1634 94.8366 66 86 66L86 49ZM86 42C63.9086 42 46 59.9086 46 82C46 104.091 63.9086 122 86 122C108.091 122 126 104.091 126 82C126 59.9086 108.091 42 86 42ZM86 66L86 98C77.1634 98 70 90.8366 70 82C70 73.1634 77.1634 66 86 66Z" fill="white"/>
</g>
<defs>
<filter id="filter0_d_1_23" x="0" y="0" width="172" height="172" filterUnits="userSpaceOnUse" color-interpolation-filters="sRGB">
<feFlood flood-opacity="0" result="BackgroundImageFix"/>
<feColorMatrix in="SourceAlpha" type="matrix" values="0 0 0 0 0 0 0 0 0 0 0 0 0 0 0 0 0 0 127 0" result="hardAlpha"/>
<feOffset dy="4"/>
<feGaussianBlur stdDeviation="2"/>
<feComposite in2="hardAlpha" operator="out"/>
<feColorMatrix type="matrix" values="0 0 0 0 0 0 0 0 0 0 0 0 0 0 0 0 0 0 0.25 0"/>
<feBlend mode="normal" in2="BackgroundImageFix" result="effect1_dropShadow_1_23"/>
<feBlend mode="normal" in="SourceGraphic" in2="effect1_dropShadow_1_23" result="shape"/>
</filter>
</defs>
</svg>
